<?xml version="1.0" standalone="no"?>
<!DOCTYPE svg PUBLIC "-//W3C//DTD SVG 20010904//EN"
 "http://www.w3.org/TR/2001/REC-SVG-20010904/DTD/svg10.dtd">
<svg version="1.0" xmlns="http://www.w3.org/2000/svg"
 width="400.000000pt" height="400.000000pt" viewBox="0 0 400.000000 400.000000"
 preserveAspectRatio="xMidYMid meet">
<metadata>
Created by potrace 1.15, written by Peter Selinger 2001-2017
</metadata>
<g transform="translate(0.000000,400.000000) scale(0.100000,-0.100000)"
fill="#000000" stroke="none">
<path d="M273 2240 l52 -89 233 -1 232 0 0 90 0 90 -284 0 -285 0 52 -90z"/>
<path d="M850 2000 l0 -330 93 0 92 0 0 117 0 118 70 3 71 3 51 87 51 87 -122
5 -121 5 0 25 0 25 140 3 140 3 52 89 52 90 -284 0 -285 0 0 -330z"/>
<path d="M1450 2000 l0 -330 260 0 261 0 -3 91 -3 90 -157 0 -158 0 0 239 0
240 -100 0 -100 0 0 -330z"/>
<path d="M1778 2318 c5 -7 62 -103 126 -213 l116 -200 0 -117 0 -118 95 0 95
0 0 114 0 114 101 174 c55 95 112 192 126 216 l24 43 -108 -3 -107 -3 -60
-102 c-33 -57 -63 -103 -67 -103 -4 0 -34 47 -68 105 l-61 105 -111 0 c-88 0
-109 -3 -101 -12z"/>
<path d="M2500 2000 l0 -330 95 0 95 0 2 162 3 162 93 -162 94 -162 114 0 114
0 0 330 0 330 -95 0 -95 0 0 -155 c0 -85 -3 -155 -7 -155 -5 0 -48 70 -97 155
l-89 155 -113 0 -114 0 0 -330z"/>
<path d="M3170 2000 l0 -330 95 0 95 0 2 161 3 162 91 -159 91 -159 116 -3
117 -3 0 331 0 330 -95 0 -95 0 0 -155 c0 -85 -3 -155 -7 -155 -5 0 -25 31
-47 68 -21 37 -62 106 -90 154 l-51 88 -112 0 -113 0 0 -330z"/>
<path d="M413 2000 l52 -90 163 0 162 0 0 90 0 90 -214 0 -214 0 51 -90z"/>
<path d="M502 1851 c2 -3 26 -46 53 -94 l50 -87 93 0 92 0 0 95 0 96 -146 -2
c-80 0 -144 -4 -142 -8z"/>
</g>
</svg>
